<svg width="40" height="40" viewBox="0 0 40 40" fill="none" xmlns="http://www.w3.org/2000/svg">
<path d="M34.1422 5.85781C30.3647 2.08031 25.3422 0 20 0C14.6578 0 9.63531 2.08031 5.85781 5.85781C2.08031 9.63531 0 14.6578 0 20C0 25.3422 2.08039 30.3646 5.85781 34.1422C9.63523 37.9198 14.6578 40 20 40C25.3422 40 30.3647 37.9197 34.1422 34.1422C37.9197 30.3647 40 25.3422 40 20C40 14.6578 37.9196 9.63539 34.1422 5.85781Z" fill="#0C0D0E"/>
<path d="M28.9872 14.0385L19.9872 11.0385C19.8332 10.9872 19.6668 10.9872 19.5128 11.0385L10.5128 14.0385C10.3635 14.0883 10.2336 14.1838 10.1415 14.3115C10.0495 14.4392 9.99999 14.5926 10 14.7501V22.2501C10 22.449 10.079 22.6397 10.2197 22.7804C10.3603 22.921 10.5511 23.0001 10.75 23.0001C10.9489 23.0001 11.1397 22.921 11.2803 22.7804C11.421 22.6397 11.5 22.449 11.5 22.2501V15.7907L14.6491 16.8397C13.8124 18.1914 13.5463 19.8199 13.9093 21.3676C14.2723 22.9153 15.2346 24.2557 16.585 25.0944C14.8975 25.7563 13.4387 26.9535 12.3719 28.5904C12.3164 28.6728 12.2778 28.7655 12.2585 28.863C12.2391 28.9605 12.2394 29.0609 12.2591 29.1583C12.2789 29.2557 12.3178 29.3482 12.3737 29.4304C12.4295 29.5126 12.5012 29.5829 12.5844 29.6372C12.6677 29.6915 12.7609 29.7287 12.8586 29.7467C12.9564 29.7647 13.0567 29.763 13.1539 29.7418C13.251 29.7207 13.3429 29.6804 13.4243 29.6234C13.5057 29.5664 13.575 29.4938 13.6281 29.4097C15.0409 27.2422 17.2722 26.0001 19.75 26.0001C22.2278 26.0001 24.4591 27.2422 25.8719 29.4097C25.9819 29.5732 26.1518 29.6869 26.3449 29.7261C26.538 29.7653 26.7388 29.7269 26.9039 29.6193C27.0689 29.5116 27.185 29.3433 27.2269 29.1508C27.2689 28.9583 27.2334 28.7569 27.1281 28.5904C26.0612 26.9535 24.5969 25.7563 22.915 25.0944C24.2641 24.2557 25.2255 22.9162 25.5884 21.3696C25.9513 19.8231 25.6861 18.1957 24.8509 16.8444L28.9872 15.4663C29.1366 15.4166 29.2665 15.3211 29.3586 15.1933C29.4506 15.0656 29.5002 14.9122 29.5002 14.7547C29.5002 14.5973 29.4506 14.4439 29.3586 14.3161C29.2665 14.1884 29.1366 14.0929 28.9872 14.0432V14.0385ZM24.25 20.0001C24.2502 20.7115 24.0817 21.4128 23.7584 22.0465C23.4351 22.6802 22.9661 23.2282 22.3899 23.6456C21.8138 24.063 21.1469 24.3378 20.444 24.4475C19.7411 24.5572 19.0222 24.4987 18.3462 24.2768C17.6703 24.0549 17.0566 23.6758 16.5556 23.1708C16.0545 22.6658 15.6803 22.0491 15.4637 21.3715C15.2471 20.6938 15.1942 19.9745 15.3094 19.2725C15.4247 18.5704 15.7047 17.9057 16.1266 17.3329L19.5128 18.4579C19.6668 18.5092 19.8332 18.5092 19.9872 18.4579L23.3734 17.3329C23.9432 18.1054 24.2505 19.0401 24.25 20.0001ZM19.75 16.9597L13.1219 14.7501L19.75 12.5404L26.3781 14.7501L19.75 16.9597Z" fill="white"/>
</svg>
